<?xml version="1.0" encoding="utf-8"?>
<!-- Generator: Adobe Illustrator 16.0.0, SVG Export Plug-In . SVG Version: 6.00 Build 0)  -->
<!DOCTYPE svg PUBLIC "-//W3C//DTD SVG 1.1//EN" "http://www.w3.org/Graphics/SVG/1.1/DTD/svg11.dtd">
<svg version="1.1" id="Layer_1" xmlns="http://www.w3.org/2000/svg" xmlns:xlink="http://www.w3.org/1999/xlink" x="0px" y="0px"
	 width="18px" height="18px" viewBox="0 0 18 18" enable-background="new 0 0 18 18" xml:space="preserve">
<g>
	<path d="M9.002-0.005C4.031-0.005,0,4.025,0,8.998S4.031,18,9.002,18c4.972,0,9.003-4.03,9.003-9.002S13.975-0.005,9.002-0.005z
		 M9.681,13.763H7.985v-1.592h1.695V13.763z M11.51,8.038c-0.336,0.495-0.758,0.947-1.269,1.357
		c-0.26,0.228-0.423,0.471-0.489,0.675C9.687,10.275,9.653,10,9.653,11H7.992c0.005-1,0.079-1.144,0.226-1.424
		s0.47-0.646,0.971-1.07c0.355-0.346,0.638-0.684,0.848-1.001s0.315-0.67,0.315-1.053c0-0.442-0.121-0.787-0.359-1.031
		c-0.24-0.244-0.58-0.366-1.022-0.366c-0.379,0-0.699-0.039-0.964,0.168C7.742,5.431,7.609,6,7.609,6h-1.6L5.989,6.101
		C5.976,5.291,6.248,4.729,6.806,4.275C7.364,3.822,8.085,3.631,8.97,3.631c0.957,0,1.704,0.262,2.239,0.75s0.803,1.173,0.803,2.039
		C12.012,6.998,11.844,7.543,11.51,8.038z"/>
</g>
</svg>
