<?xml version="1.0" encoding="utf-8"?>
<!-- Generator: Adobe Illustrator 16.0.0, SVG Export Plug-In . SVG Version: 6.00 Build 0)  -->
<!DOCTYPE svg PUBLIC "-//W3C//DTD SVG 1.1//EN" "http://www.w3.org/Graphics/SVG/1.1/DTD/svg11.dtd">
<svg version="1.1" id="Layer_1" xmlns="http://www.w3.org/2000/svg" xmlns:xlink="http://www.w3.org/1999/xlink" x="0px" y="0px"
	 width="30px" height="30px" viewBox="0 0 30 30" enable-background="new 0 0 30 30" xml:space="preserve">
<g>
	<path fill="#E7E7E7" d="M15,0C6.716,0,0,6.716,0,15s6.716,15,15,15s15-6.716,15-15S23.284,0,15,0z M15,29C7.28,29,1,22.72,1,15
		S7.28,1,15,1s14,6.28,14,14S22.72,29,15,29z"/>
	<path fill="#E7E7E7" d="M18.969,16.969v-6c0-1.104-0.896-2-2-2h-6c-1.104,0-2,0.896-2,2v6c0,1.104,0.896,2,2,2h6
		C18.073,18.969,18.969,18.073,18.969,16.969z M10.969,10.969h6v6h-6V10.969z"/>
	<path fill="#E7E7E7" d="M20.021,20.026H13v2h7.021c1.104,0,2-0.896,2-2v-7.042h-2V20.026z"/>
</g>
</svg>
