<?xml version="1.0" encoding="utf-8"?>
<!-- Generator: Adobe Illustrator 16.0.0, SVG Export Plug-In . SVG Version: 6.00 Build 0)  -->
<!DOCTYPE svg PUBLIC "-//W3C//DTD SVG 1.1//EN" "http://www.w3.org/Graphics/SVG/1.1/DTD/svg11.dtd">
<svg version="1.1" id="Layer_1" xmlns="http://www.w3.org/2000/svg" xmlns:xlink="http://www.w3.org/1999/xlink" x="0px" y="0px"
	 width="30px" height="30px" viewBox="0 0 30 30" enable-background="new 0 0 30 30" xml:space="preserve">
<g>
	<rect x="10.969" y="10.969" width="6" height="6"/>
	<path d="M15,0C6.716,0,0,6.716,0,15s6.716,15,15,15s15-6.716,15-15S23.284,0,15,0z M8.969,16.969v-6c0-1.104,0.896-2,2-2h6
		c1.104,0,2,0.896,2,2v6c0,1.104-0.896,2-2,2h-6C9.864,18.969,8.969,18.073,8.969,16.969z M22.021,20.026c0,1.104-0.896,2-2,2H13v-2
		h7.021v-7.042h2V20.026z"/>
</g>
</svg>
