<?xml version="1.0" encoding="utf-8"?>
<!-- Generator: Adobe Illustrator 16.0.0, SVG Export Plug-In . SVG Version: 6.00 Build 0)  -->
<!DOCTYPE svg PUBLIC "-//W3C//DTD SVG 1.1//EN" "http://www.w3.org/Graphics/SVG/1.1/DTD/svg11.dtd">
<svg version="1.1" id="Layer_1" xmlns="http://www.w3.org/2000/svg" xmlns:xlink="http://www.w3.org/1999/xlink" x="0px" y="0px"
	 width="30px" height="30px" viewBox="0 0 30 30" enable-background="new 0 0 30 30" xml:space="preserve">
<g>
	<path fill="#E7E7E7" enable-background="new    " d="M15,0C6.717,0,0,6.716,0,15s6.717,15,15,15c8.285,0,15-6.716,15-15
		S23.285,0,15,0z M15,29C7.28,29,1,22.72,1,15S7.28,1,15,1s14,6.28,14,14S22.72,29,15,29z"/>
	<path fill="#E7E7E7" enable-background="new    " d="M15,20.063h5V7.938h-5V20.063z M17,9.938h1v8.125h-1V9.938z"/>
	<path fill="#E7E7E7" enable-background="new    " d="M8.938,20.063h5v-8.125h-5V20.063z M10.938,13.938h1v4.125h-1V13.938z"/>
</g>
</svg>
