<?xml version="1.0" encoding="utf-8"?>
<!-- Generator: Adobe Illustrator 16.0.0, SVG Export Plug-In . SVG Version: 6.00 Build 0)  -->
<!DOCTYPE svg PUBLIC "-//W3C//DTD SVG 1.1//EN" "http://www.w3.org/Graphics/SVG/1.1/DTD/svg11.dtd">
<svg version="1.1" id="Layer_1" xmlns="http://www.w3.org/2000/svg" xmlns:xlink="http://www.w3.org/1999/xlink" x="0px" y="0px"
	 width="30px" height="30px" viewBox="0 0 30 30" enable-background="new 0 0 30 30" xml:space="preserve">
<g>
	<circle cx="15" cy="11.968" r="2.021"/>
	<path d="M15,0C6.716,0,0,6.716,0,15s6.716,15,15,15s15-6.716,15-15S23.284,0,15,0z M19.284,20.977c0-2.503-1.922-4.54-4.284-4.54
		s-4.284,2.037-4.284,4.54H8.847c0-2.616,1.515-4.868,3.677-5.863c-0.934-0.736-1.544-1.864-1.544-3.146
		c0-2.221,1.8-4.021,4.021-4.021c2.219,0,4.021,1.8,4.021,4.021c0,1.281-0.611,2.409-1.545,3.146
		c2.162,0.995,3.678,3.246,3.678,5.863H19.284z"/>
</g>
</svg>
