<?xml version="1.0" encoding="utf-8"?>
<!-- Generator: Adobe Illustrator 16.0.0, SVG Export Plug-In . SVG Version: 6.00 Build 0)  -->
<!DOCTYPE svg PUBLIC "-//W3C//DTD SVG 1.1//EN" "http://www.w3.org/Graphics/SVG/1.1/DTD/svg11.dtd">
<svg version="1.1" id="Layer_1" xmlns="http://www.w3.org/2000/svg" xmlns:xlink="http://www.w3.org/1999/xlink" x="0px" y="0px"
	 width="30px" height="30px" viewBox="0 0 30 30" enable-background="new 0 0 30 30" xml:space="preserve">
<g>
	<polygon points="10.007,18.579 10.012,19.983 11.429,19.985 17.143,14.271 15.729,12.856 	"/>
	<polygon points="18.566,10.02 18.564,10.02 17.143,11.441 18.558,12.856 19.98,11.434 18.566,10.019 	"/>
	<path d="M15,0C6.716,0,0,6.716,0,15s6.716,15,15,15s15-6.716,15-15S23.284,0,15,0z M21.395,12.848l-9.139,9.139L8.02,21.98
		l-0.016-4.227l9.148-9.149c0.391-0.39,0.902-0.585,1.414-0.585s1.023,0.195,1.414,0.585l1.414,1.414
		C22.176,10.8,22.176,12.067,21.395,12.848z"/>
</g>
</svg>
