<?xml version="1.0" encoding="utf-8"?>
<!-- Generator: Adobe Illustrator 16.0.0, SVG Export Plug-In . SVG Version: 6.00 Build 0)  -->
<!DOCTYPE svg PUBLIC "-//W3C//DTD SVG 1.1//EN" "http://www.w3.org/Graphics/SVG/1.1/DTD/svg11.dtd">
<svg version="1.1" id="Layer_1" xmlns="http://www.w3.org/2000/svg" xmlns:xlink="http://www.w3.org/1999/xlink" x="0px" y="0px"
	 width="30px" height="30px" viewBox="0 0 30 30" enable-background="new 0 0 30 30" xml:space="preserve">
<g>
	<path fill="#E7E7E7" d="M15,0C6.716,0,0,6.716,0,15s6.716,15,15,15s15-6.716,15-15S23.284,0,15,0z M15,29C7.28,29,1,22.72,1,15
		S7.28,1,15,1s14,6.28,14,14S22.72,29,15,29z"/>
	<path fill="#E7E7E7" d="M17.476,15.113c0.934-0.736,1.545-1.864,1.545-3.146c0-2.221-1.802-4.021-4.021-4.021
		c-2.221,0-4.021,1.8-4.021,4.021c0,1.281,0.611,2.41,1.544,3.146c-2.163,0.995-3.677,3.247-3.677,5.863h1.869
		c0-2.503,1.922-4.54,4.284-4.54s4.284,2.037,4.284,4.54h1.869C21.153,18.359,19.638,16.108,17.476,15.113z M15,13.988
		c-1.114,0-2.021-0.906-2.021-2.021S13.886,9.947,15,9.947s2.021,0.907,2.021,2.021S16.114,13.988,15,13.988z"/>
</g>
</svg>
