<?xml version="1.0" encoding="utf-8"?>
<!-- Generator: Adobe Illustrator 16.0.0, SVG Export Plug-In . SVG Version: 6.00 Build 0)  -->
<!DOCTYPE svg PUBLIC "-//W3C//DTD SVG 1.1//EN" "http://www.w3.org/Graphics/SVG/1.1/DTD/svg11.dtd">
<svg version="1.1" id="Layer_1" xmlns="http://www.w3.org/2000/svg" xmlns:xlink="http://www.w3.org/1999/xlink" x="0px" y="0px"
	 width="30px" height="30px" viewBox="0 0 30 30" enable-background="new 0 0 30 30" xml:space="preserve">
<g>
	<path fill="#E7E7E7" d="M15,0C6.717,0,0,6.716,0,15s6.717,15,15,15c8.285,0,15-6.716,15-15S23.285,0,15,0z M15,29
		C7.28,29,1,22.72,1,15S7.28,1,15,1s14,6.28,14,14S22.72,29,15,29z"/>
	<path fill="#E7E7E7" d="M19.98,8.605c-0.391-0.39-0.902-0.585-1.414-0.585s-1.023,0.195-1.414,0.585l-9.148,9.149l0.017,4.227
		l4.235,0.006l9.139-9.139c0.781-0.781,0.781-2.047,0-2.829L19.98,8.605z M11.43,19.985l-1.417-0.002l-0.005-1.404l5.721-5.723
		l1.414,1.415L11.43,19.985z M18.559,12.856l-1.416-1.415l1.422-1.422h0.002v0l1.414,1.415L18.559,12.856z"/>
</g>
</svg>
