<?xml version="1.0" encoding="utf-8"?>
<!-- Generator: Adobe Illustrator 16.0.0, SVG Export Plug-In . SVG Version: 6.00 Build 0)  -->
<!DOCTYPE svg PUBLIC "-//W3C//DTD SVG 1.1//EN" "http://www.w3.org/Graphics/SVG/1.1/DTD/svg11.dtd">
<svg version="1.1" id="레이어_1" xmlns="http://www.w3.org/2000/svg" xmlns:xlink="http://www.w3.org/1999/xlink" x="0px"
	 y="0px" width="406.479px" height="101.995px" viewBox="0 0 406.479 101.995" enable-background="new 0 0 406.479 101.995"
	 xml:space="preserve">
<path d="M46.444,94.797c-20.336,0-37.188-16.393-37.84-36.668H8.591L8.56,57.531V9.402h16.936v14.521h25.133v16.934
	H25.495v16.057c0,11.551,9.396,20.949,20.949,20.949c3.975,0,7.848-1.125,11.197-3.254l0.516-0.32l8.871,14.418l-0.504,0.316
	C60.509,92.797,53.567,94.797,46.444,94.797"/>
<path d="M183.276,94.797c-20.338,0-37.188-16.393-37.84-36.668h-0.016l-0.027-0.598V9.402h16.934v14.521h25.133
	v16.934h-25.133v16.057c0,11.551,9.395,20.949,20.949,20.949c3.973,0,7.846-1.125,11.197-3.254l0.516-0.32l8.871,14.418
	l-0.504,0.316C197.339,92.797,190.397,94.797,183.276,94.797"/>
<path d="M238.507,94.797c-20.338,0-37.189-16.393-37.84-36.668h-0.016l-0.031-0.598V9.402h16.938v14.521h25.133
	v16.934h-25.133v16.057c0,11.551,9.395,20.949,20.949,20.949c3.973,0,7.846-1.125,11.197-3.254l0.516-0.32l8.871,14.418
	l-0.504,0.316C252.569,92.797,245.628,94.797,238.507,94.797"/>
<path d="M101.702,94.797c-20.336,0-37.188-16.393-37.836-36.668h-0.016l-0.031-0.598V23.924h16.934v32.99
	c0,11.551,9.396,20.949,20.949,20.949c6.971,0,13.455-3.465,17.373-9.277V23.924h16.936v69.689h-16.936v-3.066
	C113.71,93.328,107.726,94.797,101.702,94.797"/>
<path d="M293.79,94.793c-20.889,0-37.885-16.992-37.885-37.881s16.996-37.885,37.885-37.885
	s37.881,16.996,37.881,37.885S314.679,94.793,293.79,94.793 M293.79,35.965c-11.555,0-20.951,9.395-20.951,20.947
	s9.396,20.951,20.951,20.951s20.947-9.398,20.947-20.951S305.345,35.965,293.79,35.965"/>
<g>
	<path d="M348.38,24.02c4.366,0,7.178,3.2,7.178,8.464c0,5.294-2.812,8.314-7.178,8.314
		c-2.572,0-4.247-1.196-5.293-2.812v2.542h-2.094V17.799h2.094v9.242C344.223,25.216,346.018,24.02,348.38,24.02z M348.32,25.725
		c-2.991,0-5.145,2.063-5.233,6.43v0.599c0.06,3.529,1.734,6.37,5.233,6.37c3.559,0,5.084-3.38,5.084-6.64
		C353.404,29.164,352.059,25.725,348.32,25.725z"/>
	<path d="M371.707,39.183c-1.405,1.047-3.2,1.585-5.323,1.585c-4.726,0.03-7.896-3.2-7.896-8.344
		c0-4.576,2.632-8.344,7.297-8.344c4.845,0,6.759,4.038,6.759,7.447c0,0.449-0.029,0.837-0.06,1.316h-11.783
		c0.06,4.008,2.423,6.131,5.683,6.161c1.615,0,3.409-0.479,4.426-1.286L371.707,39.183z M370.361,31.078
		c0-2.542-1.256-5.204-4.695-5.204c-2.781,0-4.695,2.542-4.875,5.204H370.361z"/>
	<path d="M377.119,20.222l2.063-0.688v4.905h3.858v1.794h-3.858V36.7c0,2.124,1.646,2.423,3.529,2.423v1.705
		c-3.35,0-5.593-0.748-5.593-3.828V26.233h-2.303v-1.794h2.303V20.222z"/>
	<path d="M387.706,25.545c1.615-1.106,3.978-1.585,5.713-1.495c3.379,0.179,5.323,2.243,5.323,5.354v7.955
		c0,0.957,0,2.183,0.269,3.17h-2.213l-0.149-2.422c-1.076,1.615-3.11,2.692-5.354,2.692c-2.781,0-5.354-1.854-5.354-5.114
		c0-4.576,4.456-5.922,10.707-5.443c0-2.243-0.568-3.947-3.051-4.396c-1.315-0.239-3.469,0.209-4.964,1.256L387.706,25.545z
		 M396.648,31.915c-5.294-0.418-8.554,0.748-8.554,3.798c0,2.064,1.675,3.32,3.41,3.32c2.602,0,5.144-1.974,5.144-4.187V31.915z"/>
</g>
</svg>
